# xmcd CD database file
#
# Track frame offsets:
#	150
#	19272
#	44410
#	62679
#	77238
#	95597
#	112042
#	134539
#	152881
#	179229
#	194792
#	218453
#
# Disc length: 3192 seconds
#
# Revision: 0
# Processed by: cddbd v1.5.1PL0 Copyright (c) Steve Scherf et al.
# Submitted via: CDex 1.51
#
DISCID=b60c760c
DTITLE=Michelle White - Wandering road
DYEAR=2005
DGENRE=Blues
TTITLE0=since john's been gone
TTITLE1=can't get enough of you
TTITLE2=wandering road
TTITLE3=let love
TTITLE4=take me down
TTITLE5=if you only knew
TTITLE6=down by the border
TTITLE7=anyway the wind blows
TTITLE8=beyond the vows
TTITLE9=new moon
TTITLE10=you can't rush the angels
TTITLE11=josephine
EXTD=YEAR: 2005
EXTT0=
EXTT1=
EXTT2=
EXTT3=
EXTT4=
EXTT5=
EXTT6=
EXTT7=
EXTT8=
EXTT9=
EXTT10=
EXTT11=
PLAYORDER=
